<?xml version="1.0" encoding="UTF-8"?>
<svg width="24" height="24" viewBox="0 0 24 24" fill="none" xmlns="http://www.w3.org/2000/svg">
  <circle cx="12" cy="12" r="9" stroke="#4B5563" stroke-width="2"/>
  <path d="M12 3C14.0683 5.16921 15.2806 8.03124 15.4615 11M12 3C9.93174 5.16921 8.71937 8.03124 8.53852 11M12 3L12 21M15.4615 11C15.4871 11.3335 15.5 11.6695 15.5 12C15.5 12.3305 15.4871 12.6665 15.4615 13M15.4615 11L8.53852 11M8.53852 11C8.51293 11.3335 8.5 11.6695 8.5 12C8.5 12.3305 8.51293 12.6665 8.53852 13M12 21C14.0683 18.8308 15.2806 15.9688 15.4615 13M12 21C9.93174 18.8308 8.71937 15.9688 8.53852 13M15.4615 13L8.53852 13" stroke="#4B5563" stroke-width="2"/>
</svg>
